HIERARCHY
ROOT Hips
{
	OFFSET 0.000000 0.000000 0.000000 
	CHANNELS 6 Xposition Yposition Zposition Yrotation Zrotation Xrotation 
	JOINT Lumbar
	{
		OFFSET 0.000000 0.000000 0.000000 
		CHANNELS 3 Zrotation Xrotation Yrotation
		JOINT Neck
		{
			OFFSET 0.000000 0.445665 0.000000 
			CHANNELS 3 Zrotation Xrotation Yrotation
			End Site
			{
				OFFSET 0.000000 0.227535 0.000000 
			}
		}
		JOINT RightShoulder
		{
			OFFSET 0.019635 0.377685 0.194865 
			CHANNELS 3 Zrotation Xrotation Yrotation
			JOINT RightElbow
			{
				OFFSET 0.000000 -0.243375 0.000000 
				CHANNELS 2 Zrotation Yrotation
				JOINT RightWrist
				{
					OFFSET 0.000000 -0.264825 0.000000 
					CHANNELS 2 Zrotation Xrotation
					End Site
					{
						OFFSET 0.006600 -0.176220 0.000990 
					}
				}
			}
		}
		JOINT LeftShoulder
		{
			OFFSET 0.019635 0.377685 -0.194865 
			CHANNELS 3 Zrotation Xrotation Yrotation
			JOINT LeftElbow
			{
				OFFSET 0.000000 -0.243375 0.000000 
				CHANNELS 2 Zrotation Yrotation
				JOINT LeftWrist
				{
					OFFSET 0.000000 -0.264825 0.000000 
					CHANNELS 2 Zrotation Xrotation
					End Site
					{
						OFFSET 0.006600 -0.176220 -0.000990 
					}
				}
			}
		}
	}
	JOINT RightHip
	{
		OFFSET 0.052140 -0.069960 0.075570 
		CHANNELS 3 Zrotation Xrotation Yrotation
		JOINT RightKnee
		{
			OFFSET 0.000000 -0.402270 0.000000 
			CHANNELS 1 Zrotation
			JOINT RightAnkle
			{
				OFFSET 0.000000 -0.404085 0.000000 
				CHANNELS 3 Zrotation Xrotation Yrotation
				End Site
				{
					OFFSET 0.204105 -0.089430 0.008415 
				}
			}
		}
	}
	JOINT LeftHip
	{
		OFFSET 0.052140 -0.069960 -0.075570 
		CHANNELS 3 Zrotation Xrotation Yrotation
		JOINT LeftKnee
		{
			OFFSET 0.000000 -0.402270 0.000000 
			CHANNELS 1 Zrotation
			JOINT LeftAnkle
			{
				OFFSET 0.000000 -0.404085 0.000000 
				CHANNELS 3 Zrotation Xrotation Yrotation
				End Site
				{
					OFFSET 0.204105 -0.089430 -0.008415 
				}
			}
		}
	}
}
MOTION
Frames: 13
Frame Time: 0.02
0.0011 0.00021 0.00184 16.7518 -37.23395 -3.82317 60.47573 -0.50629 0.72646 -16.18117 -0.46892 -0.11584 68.87361 -110.01585 218.41823 5.32853 153.5159 26.22221 11.07074 48.94614 112.27497 -64.15517 5.33047 -93.80204 10.2484 -0.30003 51.57725 -3.14499 -8.03467 -18.98011 -7.81641 -4.5538 -3.34968 55.3911 4.96549 -5.14834 -24.416 -10.46972 5.96203 4.05661
0.00106 0.00033 0.0015 16.68981 -37.30531 -3.78813 60.47572 -0.48569 0.79877 -16.3512 -0.43207 -0.11687 68.71573 -110.16766 187.50163 5.32853 145.00939 22.36705 10.0343 50.60726 113.03396 -64.17174 5.33028 -95.71443 10.93605 -0.50035 51.65012 -3.16377 -7.89894 -18.95817 -7.84232 -4.59519 -3.35063 55.44579 5.07242 -4.4565 -24.41011 -10.3818 5.92589 4.03168
0.00103 0.00046 0.00117 16.62804 -37.37648 -3.75311 60.47571 -0.46511 0.87083 -16.52075 -0.3954 -0.11791 68.5579 -110.3191 156.68026 5.32853 136.52916 18.52363 9.00107 52.26412 113.78926 -64.14936 5.33008 -97.60954 11.61209 -0.69915 51.72281 -3.1826 -7.7637 -18.93629 -7.86814 -4.63643 -3.35157 55.50034 5.17905 -3.76618 -24.40424 -10.29407 5.88982 4.00681
0.00099 0.00059 0.00083 16.56625 -37.44763 -3.71817 60.4757 -0.44456 0.94291 -16.69027 -0.35868 -0.11894 68.40044 -110.47049 125.8589 5.32853 128.04895 14.68031 7.96784 53.92027 114.54569 -64.15833 5.32989 -99.51384 12.29576 -0.89867 51.79546 -3.20135 -7.62841 -18.91442 -7.89398 -4.67768 -3.35251 55.55486 5.28566 -3.07635 -24.39836 -10.20641 5.85378 3.98196
0.00095 0.00072 0.00049 16.50424 -37.51896 -3.68326 60.47569 -0.42399 1.01523 -16.86025 -0.32174 -0.11997 68.24311 -110.62213 94.9423 5.32853 119.54223 10.82532 6.93133 55.58032 115.30632 -64.22424 5.32969 -101.44065 12.9955 -1.10014 51.86826 -3.21998 -7.49258 -18.89247 -7.91992 -4.71909 -3.35347 55.6095 5.39256 -2.38529 -24.39245 -10.11858 5.81769 3.95707
0.00091 0.00084 0.00016 16.44295 -37.58977 -3.64801 60.47567 -0.40342 1.08675 -17.02885 -0.28563 -0.121 68.08426 -110.77307 64.32288 5.32853 111.11804 7.00645 5.90505 57.23036 116.05038 -64.01859 5.3295 -103.26968 13.62226 -1.2934 51.94072 -3.23925 -7.35856 -18.87076 -7.94548 -4.75999 -3.35436 55.66385 5.4986 -1.6966 -24.38667 -10.03108 5.78168 3.93224
0.00087 0.00097 -0.00018 16.38029 -37.66156 -3.61347 60.47566 -0.38288 1.15979 -17.20007 -0.24791 -0.12202 67.92861 -110.92552 33.14104 5.32853 102.53814 3.11928 4.85951 58.89873 116.8269 -64.34974 5.3293 -105.29053 14.39261 -1.50267 52.0138 -3.25724 -7.22114 -18.8486 -7.97177 -4.80184 -3.35538 55.71875 5.60627 -1.00378 -24.38062 -9.943 5.74553 3.90731
0.00084 0.0011 -0.00051 16.31886 -37.73242 -3.57828 60.47565 -0.3623 1.23146 -17.36882 -0.21167 -0.12306 67.77006 -111.0761 2.47451 5.32852 94.09987 -0.70522 3.83137 60.55018 117.5736 -64.20387 5.32911 -107.13983 15.03521 -1.6977 52.08629 -3.27636 -7.08667 -18.82686 -7.99741 -4.84284 -3.35629 55.77311 5.71241 -0.31498 -24.37483 -9.85548 5.70953 3.88248
0.00079 0.00122 -0.00085 16.25907 -37.80232 -3.54224 60.47564 -0.34168 1.30134 -17.53486 -0.17726 -0.12412 67.60761 -111.22638 -27.56177 5.32852 85.83897 -4.45353 2.82552 62.18185 118.28346 -63.39642 5.32892 -108.75699 15.5017 -1.87315 52.15814 -3.29709 -6.95651 -18.80559 -8.02217 -4.88272 -3.35704 55.82695 5.81685 0.37014 -24.36934 -9.7685 5.67364 3.85772
0.00078 0.00137 -0.00119 16.19026 -37.87824 -3.51092 60.47563 -0.32131 1.38121 -17.71743 -0.13235 -0.12504 67.46652 -111.38434 -61.22414 5.32852 76.57004 -8.64157 1.69444 63.93012 119.20411 -66.15875 5.3287 -111.64216 16.92133 -2.15472 52.23394 -3.30925 -6.80365 -18.78151 -8.05176 -4.92882 -3.35864 55.88419 5.93158 1.08017 -24.36207 -9.67795 5.63687 3.83239
0.0007 0.00147 -0.00152 16.14023 -37.94113 -3.46979 60.47562 -0.30044 1.44018 -17.86452 -0.10958 -0.12626 67.28113 -111.52226 -87.23388 5.32852 69.42053 -11.90067 0.82572 65.4304 119.68088 -61.54504 5.32855 -111.89636 16.36943 -2.21667 52.30121 -3.33903 -6.69737 -18.7634 -8.07129 -4.96193 -3.35851 55.93399 6.02428 1.73513 -24.35858 -9.59526 5.60212 3.80839
0.00043 0.00145 -0.00186 16.14437 -37.97048 -3.4001 60.47562 -0.27793 1.43969 -17.9186 -0.1484 -0.12839 66.96662 -111.63586 -92.06047 5.32852 68.20481 -12.59578 0.69911 66.25965 118.91983 -35.19045 5.32861 -104.4893 10.02483 -1.63431 52.34642 -3.42131 -6.73083 -18.76138 -8.0618 -4.95789 -3.35289 55.96537 6.05853 2.25884 -24.36542 -9.53168 5.57163 3.78706
9e-05 0.00138 -0.00219 16.16692 -37.98621 -3.32087 60.47562 -0.25499 1.41858 -17.93651 -0.20925 -0.13082 66.60921 -111.72343 -89.23503 5.32852 69.09702 -12.36057 0.832 66.83758 117.71637 -1.70114 5.32874 -94.52025 1.76988 -0.83894 52.38272 -3.52046 -6.80879 -18.76541 -8.04247 -4.94109 -3.34567 55.98881 6.07035 2.72373 -24.37607 -9.47643 5.54339 3.76724
